/* XPM */
static char *mossy641681393831[] = {
/* columns rows colors chars-per-pixel */
"64 64 211 2 ",
"   c #555F3A",
".  c #5B6B36",
"X  c #57653B",
"o  c #5A643D",
"O  c #5B6A3D",
"+  c #586839",
"@  c #5F783F",
"#  c #606A3F",
"$  c #61723E",
"%  c #667C3E",
"&  c #697C3A",
"*  c #575E48",
"=  c #5D5D53",
"-  c #5D5D5C",
";  c #625E5C",
":  c #625E55",
">  c #576641",
",  c #5B6544",
"<  c #5C6A43",
"1  c #5C654B",
"2  c #5D694B",
"3  c #5E7542",
"4  c #5F7645",
"5  c #5E6453",
"6  c #5F6852",
"7  c #5E625B",
"8  c #606746",
"9  c #616A45",
"0  c #61654D",
"q  c #626A4C",
"w  c #627543",
"e  c #657C43",
"r  c #697D45",
"t  c #64754C",
"y  c #6A764C",
"u  c #667B4B",
"i  c #6B7B4C",
"p  c #6A7645",
"a  c #707E4C",
"s  c #626455",
"d  c #646B54",
"f  c #63635B",
"g  c #666C5B",
"h  c #6A6E5C",
"j  c #686C53",
"k  c #657453",
"l  c #6B7654",
"z  c #677A54",
"x  c #6C7B53",
"c  c #6C755C",
"v  c #6D7B5A",
"b  c #67745A",
"n  c #717C54",
"m  c #727C5C",
"M  c #707758",
"N  c #5E5D62",
"B  c #5F5D6A",
"V  c #625E63",
"C  c #625E6A",
"Z  c #5E6364",
"A  c #5F616C",
"S  c #646364",
"D  c #6B6763",
"F  c #666A63",
"G  c #6A6C65",
"H  c #64626B",
"J  c #69666B",
"K  c #666A6A",
"L  c #6B6C6B",
"P  c #706D6C",
"I  c #6D7463",
"U  c #6E7A62",
"Y  c #6E726C",
"T  c #717664",
"R  c #727B63",
"E  c #71746C",
"W  c #737A6B",
"Q  c #7A7E6F",
"!  c #6D6E72",
"~  c #706F74",
"^  c #6E7272",
"/  c #737473",
"(  c #757975",
")  c #797B74",
"_  c #74747A",
"`  c #75797A",
"'  c #7B7D7C",
"]  c #6A843B",
"[  c #678039",
"{  c #668142",
"}  c #6B8243",
"|  c #6B814A",
" . c #6E8D49",
".. c #73854D",
"X. c #748B4D",
"o. c #798A4F",
"O. c #728546",
"+. c #75904E",
"@. c #7D954E",
"#. c #789046",
"$. c #6D8253",
"%. c #738454",
"&. c #758B53",
"*. c #7A8C54",
"=. c #74835A",
"-. c #79865C",
";. c #768C5A",
":. c #7B8C5C",
">. c #788750",
",. c #769353",
"<. c #7C9354",
"1. c #7E9957",
"2. c #769059",
"3. c #7D935B",
"4. c #7F995B",
"5. c #748261",
"6. c #7A8563",
"7. c #7D8C63",
"8. c #76836A",
"9. c #7B856B",
"0. c #7D8B6B",
"q. c #7E9062",
"w. c #7F9861",
"e. c #7D8474",
"r. c #7E8A72",
"t. c #7E847C",
"y. c #7E8A79",
"u. c #80944F",
"i. c #808E5C",
"p. c #818F54",
"a. c #819556",
"s. c #81925C",
"d. c #839A5A",
"f. c #818D64",
"g. c #818D6B",
"h. c #80856F",
"j. c #829264",
"k. c #84916B",
"l. c #88926F",
"z. c #818675",
"x. c #828B74",
"c. c #888D77",
"v. c #81857C",
"b. c #848B7C",
"n. c #898F7D",
"m. c #869173",
"M. c #899373",
"N. c #86917B",
"B. c #8A927C",
"V. c #8C997B",
"C. c #90957F",
"Z. c #7E7E82",
"A. c #7D7E8B",
"S. c #827F86",
"D. c #827E8A",
"F. c #7E8283",
"G. c #7F828B",
"H. c #7F8981",
"J. c #838484",
"K. c #888786",
"L. c #858A83",
"P. c #898C85",
"I. c #83848A",
"U. c #8A868C",
"Y. c #868A8A",
"T. c #8B8C8B",
"R. c #918C8E",
"E. c #90878C",
"W. c #869183",
"Q. c #8B9284",
"!. c #879188",
"~. c #8C918B",
"^. c #8E9B81",
"/. c #949B84",
"(. c #92948D",
"). c #959B8B",
"_. c #999E8D",
"`. c #949986",
"'. c #848591",
"]. c #878A92",
"[. c #8B8C92",
"{. c #8D8D9A",
"}. c #888895",
"|. c #928D92",
" X c #8D9193",
".X c #949494",
"XX c #999695",
"oX c #969993",
"OX c #9A9B95",
"+X c #95949A",
"@X c #9A969A",
"#X c #96999D",
"$X c #9C9A9C",
"%X c #A29D9D",
"&X c #96A185",
"*X c #97A189",
"=X c #9AA28C",
"-X c #9CA293",
";X c #9EA19B",
":X c #9DAA90",
">X c #A2A59D",
",X c #A5AE99",
"<X c #A7B198",
"1X c #9996A2",
"2X c #9C9DA2",
"3X c #999AA4",
"4X c #A19EA2",
"5X c #A2A2A4",
"6X c #A4A7A8",
"7X c #A7ABA6",
"8X c #ACB3A6",
/* pixels */
"|.|.}.|.OX_.=X_.m v x $.;.;.2.2.*.*.*.*.a.a.s.a.s.s.j.j.;.*.*.&.r | i l *X_._._.c.g.f.j.s.p.a.j.V.T.(.n.%.& ] ] d.3.w.3.} { $.$.",
"|.E.U.U.(.oX).V.R x z $.;.;.&.X.X.%.X.X.o.a.<.<.a.:.7.3.>.&.*.o.| r i l &X*X).).c.g.f.i.s.a.a.s.c.n.P.b.v % ] [ ,.,.4.<.] [ $.$.",
"|.U.K.U.XXOXOX).v k k $.=.2.;.X.&...X.o.@.+.<.a.3.:.3.3.&.&.*.&.r r t v /.=X_./.g.f.f.p.p.p.p.i.m.P.~.b.=.r ] [ 3.3.w.,.[ [ 4 | ",
"|.|.E.R..XoX).).W m v $.=.&.+.$.,.&.*.*.<.<.<.*.3.3.s.3.X...X.X.a n v 5.`.).`./.z.g.f.f.f.i.f.g.B.P.L.P.m i O.} &.2.,.&.] { { | ",
"@X%X@X|.U.K.J.b.y.y.r.7.$.{ { { ,.&.,.&.,.X.&.X.,.*.<.&.} { } u r.W.H.H.J.J.J.L.v.z.z.h.r.r.y.e.b.v.L.t.m i | } | | } O.#.@.@.<.",
"XX%X4X|.U.' t.F.!.^.V.k.$.{ e { <.3.3.,.&.&. ...<.<.<.<.{ % } i W. X X{.G.G.Z.J.t.v.t.t.t.t.t.F.b.z.v.e.U z i u u | % } ,.d.a.1.",
"XX%XXX+XU.S.I.Y.L.W.B.0.%.r } } <.4.4.3.2.&.&.,.<.<.1.<.} { } z H.{.}.{.A.G.I.I.F.t.t.t.F.F.A.F.z.h.c.e.U v v x $.$.r | a.d.3.3.",
"XX@XXX|.U.I.A.J.T.Q.B.0.=.r r } ,.3.3.2.&.&.&.&.<.,.1.+.} [ { z !. X'.{.A.I.F.t.v.y.v.v.F.G.I.J.z.6.9.9.v v $.z 4 $.u i 3.j.:.k.",
"OXXXXX+X[.[.[.U.F.F.b.r.z u | r X.&...2.u $.u | &.#.X. .| { | z e.J.J.t.t.v.e.x.g.9.g.c./.).OX`.M i v v 8.0.r.0.z $.z x 7.m.0.0.",
"OXXX@X+X[.}.[.[.H.J.b.r.v z ..i X.&.&.;.u z u $.&.X.X...| e x z r.y.b.e.b.0.0.g.f.f.f.l./._._.`.m x z 5.8.r.r.8.$.$.x $.0.x.y.x.",
"$XXXXX+XE.]. X[.F.t.t.e.c z v i X.*.%.;.z z t z *.&.&...| x z v h.v.z.e.y.e.8.0.g.f.f.c./.-XOX`.m y z z 0.y.y.8.z u z v y.H.J.P.",
"@XXX@X+XU.U.U.U.J.F.b.e.R R m x %.*.%.=.5.5.v =.-.*.&...$.x v U z.v.v.Z.L.L.y.y.c.x.h.c.`.oX(.R.T n $.;.r.y.y.0.z x x =.t.L.J.Y.",
"@X+X@X.XK.S.J.v.T.L.Q.P.e.e.e.6.a a x m V.^.V.V.5.;.-.%.v v U Y S.K.S.].+X+X XoXL.L.L.L.Y.T.E.].P.c.m.x.y.H.t.r.7.d.:.6.b.Y.F.J.",
"$X@X$X.XK.Z.J.Z.~.Y.~.~.v.b.b.r.i r i m *X=X*X&X6.:.-.%.v U I Y S.K.S.].1X3X2X2XY.Y.P.Y.S.S.D.D.U.~.^.W.H.H.t.y.j.j.s.f.P.Y.G.J.",
"$X+X$X+XJ.Z.J.v.P.P.P.L.v.v.v.r.n a x b *X_.`./.6.-.-.=.m I Y E S.v.S.K.+X3X#X#XY.!.P.L.J.v.S.S.].Y.P.L.H.G.H.x.:.<.*.7.b.J.J.P.",
"$XXX@X+XJ.J.v.v.P.b.B.W.v.v.J.e.M n m I =X).`.&X6.-.-.-.m I Y / J.K.Z.v..XOXoX).Q.N.N.b.v.J.J.I.{.].Y.L.G.G.G.e.f.j.j.h.P.Y.J.Y.",
"OX.XOX+X[.Y.T.P.R m l m c.(.T.T.P.P.P.P.J.z.e.0.x i i %.6.c.J.J.J.J.J.e.R l x n -.7.6.9.8X7X6X6XG.F.F.G.! _ _ ! +XXXOXXXJ.J.K.K.",
"OX.X#X#X[.Y.!.x.l i y n c.C.P.R.T.R.U.T.L.z.9.0.x i i %.9.v.L.J.J.J.v.9.m i r | %.%.%.-.,X7X6X6XF.H.F.Y.! / _ _ @X@X$X.XY.J.P.v.",
"OXOX@X#X XY.~.N.v z i n k.C.P.R.E.T.P.T.J.t.y.9.z k l v 9.v.J.J.t.v.z.6.n i e e X.X.%.6.<X8X7X8Xy.y.y.t.L L L ! $X@X$XOXP.v.P.b.",
"OXXX@X+X].Y.L.y.l i i %.f.c.c.b.P.P.P.K.L.J.b.y.R U R 8.e.J.J.J.e.0.0.5.%.| } } X.*.;.3.&X,X:X:X9.8.8.e.W ( ( ( +X.XXX~.b.e.x.h.",
"(.T.[.[.F.t.t.8.k t 3 w $.=.U 8.b.b.J.K.L.Y.L.J.L.y.b.b.Y.~.[.P.x.k.7.3.&.X.X. .<.,.:.:.;.5.5.R m x m 9.n.(.(..XL.J.P.y.R c m v ",
"T.Y.T.Y.Z.` e.W t u @ $ u $.z b z.v.v.J.U.T.Y.!.~.~.!.!.~.~.Y.L.0.w.3.3.&.,.X.+.<.1.<.3.u t 4 y i i l R /.%X;XOXv.e.e.e.m y i u ",
"R.T.[.Y.Z.t.e.U z u 3 3 | $.$.z h.v.v.J.Y.[.[.~.T.~.L.Q.L.W.P.m.7.<.*.&.+. . . .,.1.,.4.} | u %.z l l m /.OXoX.XJ.t.x.9.x u | e ",
"E.T.~.G.Z.` e.W 2 u 3 4 { | | =.h.v.v.J.Y.[.[.[.[.P.L.L.B.B.c.l.d.<.<.,.+. . . .,.,.,.4.{ | r r y n m T _.XX.XoXJ.t.x.0.x e } ] ",
"Z.' ' ' / Y Y I z 4 4 4 { 4 3 4 P P P _ U.|.T.T./ E E T T m M n :.<.<.<.<.,.,.,.{ { { { } { r i 0.r.z.y.t.I.I.I.t.t.e.0.q.3.<.@.",
"Z.' ' ) / E E I b k t z 4 4 4 4 E / P _ K.R.Y.U.~ E E T M n a i d.a.d.3.<.4.1.1.{ { { { { r & i 0.x.b.J.I.I.I.U.F.H.b.0.q.3.<.1.",
"S.S.S.' / E E T I b z k 4 4 4 z E _ ~ ) E.E.E.R./ E E T R n n a i.j.i.3.3.3.2.2.| | } i | r O.n r.t.v.J.J.I.I.D.J.t.t.r.0.7.3.<.",
"' ) ` ( / E / Y g g d k t 4 3 4 L ~ P _ J.P.P.P.P P P T c l i i f.g.g.f.7.q.q.q.r r u r r r p a r.e.y.F.J.I.K.K.I.J.b.z.x.g.j.j.",
"L L Y Y K G P G 7 7 5 6 2 < < 2 L / L K E P P P D S V S f d 2 q s 0 0 1 2 < < O O O # # # # 9 8 2 1 5 7 g D J K J D F F g b j b ",
"L K F K F K L D 7 7 7 5 5 , > > F L F S D D D D V V V B 7 5 5 5 5 s = 1 1 > > X o   + + o o o o 2 , 2 5 h G L K K J P G G G G G ",
"Y K I K G L P J S Z 7 5 5 , , 2 S L F D T D D P V C C B B Z Z 7 - = = = * , > > o o # o , o , 8 > X > , j j h g D J J J ! K J K ",
"I Z g I g h c g f f f s 5 5 5 5 K L L D G D D P V C C B A A Z Z S S S f f s 5 1 8 0 8 0 0 : 0 s 2 , 1 2 j j j j c h G h K G L L ",
"7.q.q.3.:.a.:.j.i m c c =X-XOX$X%X%X%X%X$X2X$X$XY.U..XU.C V C J U.U.U.|.XX%X$XOX-XoX;X;XOXOX%X%X>X#X>X&Xm p >.& p.p.a.f.7.6.7.7.",
"3.3.<.1.a.<.a.3.a n m R -X;X;X2X4X%X4X4X5X5X5X2XT.~.T.T.D V C C |.E.E.XX%X4X5X4X5X5X5X5X5X5X5X5X2X$X>X/.n r O.& u.a.@.a.a.d.4.3.",
"4.4.3.3.d.3.3.3.i l l R ;X>X5X>X4X%X4X4X5X5X5X5XT.(.T.T.V V C J E.E.E.|.$X5X5X6X4X;X2X$X2X$X$X2X4X;X7X_.R q z u i.i.i.3.3.d.3.<.",
":.:.*.:.:.j.k.q.m m R W oX#X$X$X@X%X$X$X1X1X1X+XT.T.U.Y.V V V V E.E.|.XX@X$X$X$X4X$X2X2X4X4X5X$X$XOX;X).e.T R 5.l.g.g.q.:.&.<.,.",
"| $.%.%.q.l.m.k.m.x.n.v.(.T.(.T.R.R.R.E.U.'.U.U.I.I.I.K.V ; S D @X@X@XXX|.T.[.T.F.Z.J.I.U.Y.T.Y.T.Q.~.~.L.J.L.H.H.N.N.0.%.| } O.",
"x u u =.0.M.V.y.W.W.~.P.(.J.Y.Y.T.T.U.T.S.A.A.I.D.I.I.S.V ; ; ; %X4X@XXX[.T.Y.T.J.I.I.K.T.|.|.R.P.P.P.P.T. X X XH.!.^.m.=.u w } ",
"x i k R x.Q.W.P.L.J.T.Y.T.L.R.U.T.|.|.T.I.J.A.I.'.D.A.I.; ; : ; XX@X$XXXR.T.T..XF.t.v.J.P.U.E.P.P.Q.P.Y.[.].].].Y.!.W.r.m i i $.",
"m v c 8.x.!.Q.Y. XY.|.Y.[.P.XXP.U.T.[.T.J.J.G.G.'.I.I.S.; ; f : XX%X$XXXR.T.Y.Y.J.J.J.J.T.T.T.T.b.T.T.T.[.Y.Y. X!.!.N.r.=.v v m ",
"B.M.B.b.v.J.F.S.I.D.I.I.Y.T.P.K.J.J.Z.v.J.J.F.F.].{.{.T.S ; : : XXXXXX@Xv.J.J.F.^ Y ^ ` J.T.T.Y.^ ! K _ Y. X~.P.U b m c h.0.z.y.",
"V.W.P.b.b.J.J.S.I.S.A.K.].T.T.T.J.J.J.v.v.t.v.t.I. X[.Y.V ; : : XXXXXXXXJ.J.Z.F./ ^ Y ` J.T.(.Y._ ^ ^ Z.L.P.n.c.v x n l x.z.b.J.",
"P.T.P.b.J.I.S.S.D.I.I.J.U.T.Y.T.I.I.t.t.e.b.y.t.~.{.|.U.J ; ; ; XXXXXX%XJ.J.F.H.Y Y L ( J.(..XT.^ ! ^ ` I.Q.B.M.n a n l x.t.F.G.",
"P.P.P.K.J.I.K.I.K.I.I.U.K.Y.Y.T.S.F.t.e.r.g.h.r.L.T.U.U.J ; ; ; %X%X%XXX' t.t.t.^ ^ ^ ( J.Y.L.L.^ ^ _ ` I.Q.B.M.y p p y x.H.I.G.",
"K.K.S.K.U.T.T.U.T.U.Y.U.K.J.J.I.I.G.t.e.g.g.f.0.T ( _ _ V V ; f R.%XXXXX/ / ^ ( y.F.t.t.( / ( / G.F.F.F.I.J.y.0.o o # q x.T.{.{.",
"S.J.S.K.U.U.T.T.T.T.T.K.J.J.J.J.G.I.t.0.g.j.f.g.c T L _ ; V V V XXXXXX.XE Y Y ^ H.H.J.t./ L Y Y H.H.G.G.G.G.t.9.*   # 0 c.~.+X{.",
"K.S.S.D.U.T.T.T.E.P.T.K.J.J.J.F.G.F.e.r.7.i.s.f.M E P _ C C V V XX%XOXXX/ L Y ^ F.F.F.t./ Y ^ / t.t.F.Y.I.I.J.v.0 8 , 0 b.Y.{.'.",
"U.S.S.J.T.E.T.P.P.E.P.P.J.J.J.J.G.A.t.x.f.j.s.f.M E P _ C J C C XX%XOXXXW c I I y.y.y.e.( Y I E b.F.H.G.G.F.F.t.s = 8 s b.T.|.].",
"U.K.S.I.J.J.K.J.J.v.' t.J.v.v.J.}.[.P.x.f.f.i.f.N.W. X].A B C S T.~.~.P.f.%.-.:.7.7.f.0.z.v.z.z.P.P.P.Y.J.J.J.v.E E E E E E / / ",
"S.S.J.S.J.J.J.S.' K.J.v.v.L.t.L.[.T.P.M.j.i.f.f.N.W. X}.H B C C [.T.P.c.-.>.%.%.j.j.i.f.z.v.z.z.P.P.P.P.J.v.v.J.E E E E E E E E ",
"J.J.S.v.J.J.J.J.J.K.J.J.F.F.Z.J.P.P.c.M.j.s.f.k.N.W.[.].C V V V T.T.T.n.-.>.-.*.j.7.j.g.b.F.v.v.P.P.T.Y.J.v.v.J.L L / E E P L Y ",
"K.K.J.J.K.J.U.J.Z.J.S.Z.Y.I.F.J.P.c.l.j.s.i.s.f.M.!.~.Y.S V ; D T.T.U.b.f.*.;.:.7.g.g.0.J.Y.J.J.T.T.T.Y.J.v.J.J.( ( / / ` ( ( ( ",
"U.P.K.K.T.P.T.P./ ` ^ ` I. X].!.x.j.f.i.:.a.3.k.N.P.T.T.S ; f f T.T. XP.g.i.i.7.0.0.6.z.Y.].Y.Y.P.T.T.T.J.J.J.J.Z.F.Z.J.K.Y.Y.Y.",
"R.E.T.K.T.E.T.T./ ^ K ^ Y. XT.!.0.i.a.a.a.:.7.g.B.P.(.U.S ; ; ; T.[.~.P.g.s.f.k.0.0.0.y.Y.{.[.Y.T.T.T.Y.J.J.F.I.J.I.J.K.[.[.|..X",
"~.T.T.T.T.T.(.P.E E Y E L.Q.L.N.3.<.a.a.<.i.q.x.n.T.[.[.V ; : f T.[.Y.b.g.j.j.0.0.0.6.z.Y.{.[.T.T.T.T.Y.I.J.F.J.J.J.J.I.T.|.[.T.",
"[.[.T.T.P.Q.n.P.I U U R x.V.N.m.:.<.<.<.i.7.x.c.P.T.|.U.D ; : f P.P.L.B.j.s.j.q.0.0.0.z.T.[.U.Y.T.[.[.K.J.J.J.I.J.J.F.I.T. X[.T.",
"~ _ / ^ E E I R 9.9.R 6.-.-.m -.<.1.<.j.j.M.B.P.@X1X{.1XV S ; 7 E E W T -.*.:.-.6.6.6.9.L.T.R.P./ / ~ ` Z.J.J.J.F.J.J.Z.) / / ( ",
"Z._ ~ L / T c c 6.7.i.i.i.i.i.*.1.3.3.j.k.V.W.~.+X1X4X4XV S S f E T Y R %.*.*.-.6.-.:.0.P.~.Q.P./ P ~ ( v.J.L.v.J.J.J.e.E P L E ",
"! ! L E E T m n -.-.*.>.>.*.o.o.3.3.q.q.m.B.!.[.1X3X1X1XC N - - E E W R -.p.:.:.-.-.-.6.x.Q.W.n.E / / ` J.J.K.J.L.P.P.v.) E W E ",
"~ Z.( / I c v l :.-.>.*.p.o.o.>.2.q.q.r.N.!.P.[.+X1X+X{.! J H K E E E W %.>.>.%.6.:.*.7.c.N.M.c.E ! E / ' v.v.v.) z.) Q W T c T ",
"G.F.J.e.g 1 2 2 O . . . . . . . + + > 2 g G L J C H H J - Z N Z F F Z 7 9 $ 9 w O X + + 2 s 8 0 G L L L E Y T G s j g j 0 8 s 0 ",
"I.L.~.e.6 * , X 9 < . O . O O O O > 1 6 g K L L V V N H F L A K N Z Z 5 , + + X < O . O 2 1 9 , G G F G G G g g * = * 8 8 8 8 8 ",
"b.t.P.y.1 , q , O o > < > > , , < , , 6 F L L L ; S - 7 Z Z Z A H H H S 2 O O 2 < o . O 2 1 , 8 I Y L Y G G F h s 0 0 8 8 8 9 9 ",
"W.b.b.e.6 , 9 , 9 , 4 < < < 2 2 < > 1 6 G L L L - S F 7 Z Z Z K A A A Z 2 o < < , o O O 1 0 8 8 F L G G G c G c 0 0 0 8 8 9 # 9 "
};
