/* XPM */
static char *oak641681393830[] = {
/* columns rows colors chars-per-pixel */
"64 64 188 2 ",
"   c #332306",
".  c #3B2807",
"X  c #35240B",
"o  c #3A2709",
"O  c #3C2C0D",
"+  c #2E2514",
"@  c #362613",
"#  c #392514",
"$  c #362B13",
"%  c #3C2C14",
"&  c #37261A",
"*  c #3B2719",
"=  c #362C1A",
"-  c #3C2D1B",
";  c #3D3015",
":  c #3D321C",
">  c #3D2E24",
",  c #3D3321",
"<  c #3E3822",
"1  c #432C0E",
"2  c #4A2E0D",
"3  c #41310F",
"4  c #4E320D",
"5  c #422E14",
"6  c #422E1B",
"7  c #492F1E",
"8  c #433215",
"9  c #493215",
"0  c #4D3916",
"q  c #43331B",
"w  c #4A351B",
"e  c #44381E",
"r  c #4C391C",
"t  c #513B1C",
"y  c #422E23",
"u  c #443323",
"i  c #4A3523",
"p  c #443922",
"a  c #4C3B24",
"s  c #433229",
"d  c #4B3629",
"f  c #4D3B2A",
"g  c #503721",
"h  c #523C24",
"j  c #503629",
"k  c #533D2B",
"l  c #593F2E",
"z  c #57401E",
"x  c #59441F",
"c  c #4E4024",
"v  c #44412E",
"b  c #4D432E",
"n  c #4F482C",
"m  c #534223",
"M  c #5B4524",
"N  c #5A4924",
"B  c #54432B",
"V  c #5B452B",
"C  c #564B2C",
"Z  c #5C4B2B",
"A  c #5F512E",
"S  c #474532",
"D  c #4C4332",
"F  c #4E4139",
"G  c #4F4838",
"H  c #534534",
"J  c #5A4634",
"K  c #544C30",
"L  c #5C4B34",
"P  c #534439",
"I  c #514839",
"U  c #5B4A3B",
"Y  c #5E5234",
"T  c #5D523A",
"R  c #634C26",
"E  c #684D26",
"W  c #644D2C",
"Q  c #615226",
"!  c #6A5426",
"~  c #64522D",
"^  c #6B532D",
"/  c #6D592E",
"(  c #71562E",
")  c #725A2E",
"_  c #624D33",
"`  c #694F31",
"'  c #634B39",
"]  c #6A4F3C",
"[  c #655333",
"{  c #6B5433",
"}  c #665836",
"|  c #6C5A35",
" . c #65543A",
".. c #6A553A",
"X. c #665A3B",
"o. c #6C5B3B",
"O. c #715634",
"+. c #725A34",
"@. c #7A5D36",
"#. c #72563B",
"$. c #745C3C",
"%. c #7B5E3B",
"&. c #746336",
"*. c #7A6335",
"=. c #75623C",
"-. c #7B643C",
";. c #76693A",
":. c #7D693D",
">. c #6C5342",
",. c #665941",
"<. c #6C5A42",
"1. c #6D5D4B",
"2. c #745E42",
"3. c #795F41",
"4. c #735F49",
"5. c #795E4B",
"6. c #795F50",
"7. c #6D6446",
"8. c #6E6449",
"9. c #746342",
"0. c #7B6343",
"q. c #7D6A43",
"w. c #726349",
"e. c #7C644A",
"r. c #75694B",
"t. c #7D6A4B",
"y. c #805E38",
"u. c #806337",
"i. c #81643D",
"p. c #88653F",
"a. c #81693D",
"s. c #886C3D",
"d. c #826543",
"f. c #836B45",
"g. c #8A6C45",
"h. c #806649",
"j. c #856C4B",
"k. c #8C6E4A",
"l. c #916D49",
"z. c #867146",
"x. c #8C7445",
"c. c #8E7846",
"v. c #86724B",
"b. c #8C734C",
"n. c #87784F",
"m. c #8E794B",
"M. c #927546",
"N. c #937944",
"B. c #9E7F46",
"V. c #93754C",
"C. c #99774B",
"Z. c #937A4B",
"A. c #9A7C4C",
"S. c #836F54",
"D. c #8B6D52",
"F. c #847155",
"G. c #8D7452",
"H. c #8E7953",
"J. c #857458",
"K. c #8A7759",
"L. c #8D7859",
"P. c #927552",
"I. c #947B53",
"U. c #9A7B54",
"Y. c #92775A",
"T. c #947B5B",
"R. c #9B7E5B",
"E. c #A07F55",
"W. c #917E60",
"Q. c #96814E",
"!. c #9C814D",
"~. c #968154",
"^. c #9A8253",
"/. c #9C8B57",
"(. c #9B825B",
"). c #A0834B",
"_. c #A18B4F",
"`. c #A48355",
"'. c #A4835B",
"]. c #A88659",
"[. c #A28B5C",
"{. c #A8895A",
"}. c #948265",
"|. c #9C8563",
" X c #A38A62",
".X c #AA8862",
"XX c #A1896D",
"oX c #B08E68",
/* pixels */
"1.B J C 9.q.0.0.0.5.h.d. X`././.Y S b V 0.:.d.p.(.T.}.}.L B J V $.=.=.o.e.e.w.e.9.9.0.%.b.j.D.b.q.q.t.0.P.g.x.j.5.6.4.0. X`.'..X",
"P q e 9 ~ [ ` ` #.#.] #.P.V.s.x.; + @ 5 W E ( ^ k.v.K.t.q O 5 8 ^ ~ W W  .' L ' _ W ~ W -.=.0.0.~ ~ ..' 0.@.@.%.] >. .O.^.A.U..X",
"U u p r [ { { { ] ` ..#.T.~._./.a , : w +.@.@.( L.L.}.J.c : w h R Q R [ ..o.<.<.{ [ { ^ q.-.0.2.| o.9.#.h.%.@.0.>.>.>...^.Z.U.].",
"U u e r [ | { { #...2.3.j.n.c.n.: - % 5 O.+.+.( T.K.L.r.B q 8 9 ~ ! ^ $.L ' _  ...{ { ^ d.0.d.0.| { >...d.-.i.9...>.' { ^.A.A.'.",
"P = q q A ~ ~ ~ o.2.#...M t 0 r q , 8 w k.P.V.G.t 9 r B J Y ..[ f.n.b.e.g w 9 w _ Z ^ { G.D.P.G.m m m V 3.i.q.%.k k h M c.Q.N.].",
"P > q q A [ ~ ~ o.#.o. .% X     - : % 0 k.P.V.m.x 9 q r T [  ._ I.(.(.L.r 5 5 q { [ { +.I.R.R.T.c c d l 0.d.q.%.g h r x c.s.M.`.",
"D = > ; C ~ A Q { o.2.<.q - 6 u q i 5 0 G.T.P.P.0 % 8 q [ [  .{ x.m.P.G.5 5 5 w ..[ { O.P.I.P.D.c c r h 3.%.%.+.l k h N c.N.M.U.",
"G = u : A [ ~ ~ o.o.o.o.6 * * * % q 5 9 P.(.I.P.0 0 w e  .J { { Z.I.I.P.9 5 % 6 [ _ ^ | P.R.R.G.z r b l 3.0.i.-.g g r x x.N.M.`.",
"D = - $ C Z N Z ~ [ L [ u d s s J } _ { P.R.P.Y.0 5 8 q  . .{ { m.A.m.L.9 5 5 5 _ ~ { ^ i.y.i.%.m f d f e.d.*.=.h h a x N.Z.A.'.",
"b $ - % L L Z Z A ~ [ _ u p s s _ o.W O.P.R.D.Y.w 5 ; q ' [ [ { V.Z.V.G.9 5 # 6 ' { { ^ i.i.p.%.r d f k 3.0.:.=.h d w N m.N.A.'.",
"a X $ % J [ W _ ~ [ L [ i p s s _ { R O.V. XY.Y.w ; ; q  .[ ..^ M.Z.V.G.9 5 % 8 _ [ { W i.@.y.@.m b k k e.%.*.=.h h f M Z.Z.I.'.",
"C ; q p B J J V W [ ~ Y q s y p ' { ^ +.k.P.D.P.w 5 % q  .[ { ^ M.Z.A.G.9 6 % 6 _ [ [ ! i.p.p.%.t a f k e.f.:.-.h h p N m.x.P.R.",
"9.A T  .k k d g L [ ~ L q q u u 2.%.$.%.d.d.d.0.w 5 q q  .[ [ ! M.A.V.P.9 5 % q  .[ | / V.V.C.k.9 ; : h G.I.I.v.w w q r :.a.d.P.",
"q.o.7.<.d d i d _ [ W ~ w e u q 2.-.d.-.y.%.3.2.w : : 8  .[ { ! N.N.V.G.9 5 % 6  .[ { +.P.A.U.P.8 O * h L.|.~.H.w i 8 r ;.*.%.j.",
";.[ o.<.d j i j _ _ ~ A 9 q : q $.%.-.y.y.d.h.0.w : - q  .[ | ! M.C.M.G.9 5 % q  .[ { / V.C.C.l.9 ; - h H.(.I.v.w u e r -.-.3.D.",
";.~ X.2.i j d d _ _ A A 9 9 5 q 3.%.i.i.%.d.d.$.w 5 5 q [ [ ~ ~ V.A.Z.G.5 - - q  .[ ^ ^ V.C.C.l.3 - - k H.(.~.H.9 u q r -.%.d.D.",
";.~ o.} p y y i  .{ { | ~ [  .] %.d.-.-.:.:.=.q.{ ..] { ` { ~ / ( +.$.X.c : < <  .{ O.( C.A.C.x.9 O : r H.Q.Q.c.e ; 6 q =.q.%.D.",
";.Q o.T d p i j  .{ | { ^ _ ` ` 3.d.3.*.-.=.*.=.O.{ O.{ { [ ~ ~ +.=.o.X.< < < <  .{ { ( C.A.E.b.8 ; : w H.c.Q.q.8 - 6 q 0.q.0.D.",
";.Q | Y i 7 y 7 ..{ | { { ~ { ` 3.y.%.*.-.-.-.=.O.#.O.{ { { [ ~ +.=.o.X.< < < <  .[ ^ ( P.E.U.V.8 % 6 a H.Q.~.c.5 * u q 9.q.0.D.",
";.Q o.} f s i w ..o.| | { [ { { d.y.d.q.;.;.-.;.{ { #.O.{ { } [ +.+.o.X.< : : c  .[ O.( V.C.C.k.8 % y w H.m.Q.z.q 6 u q $.%.$.D.",
";.~ o...Z J J _ ..{ o.| { { { { P.V.I.n.| ~ / / { ` { ] { ..} } { +.{  .: : : :  .[ / ( V.M.l.j.e - y 7 d.:.:.&.q u s q | +.{ 0.",
"q.~ $.o.L _ L _ ......{ { _ ` { I.A.^.m./ Q / ~ ^ ` ` O.....,.o.^ +.{ [ : : ; :  .[ O.^ g.k.k.f.q 6 y 7 0.*.-.+.q u u q | ~ ` 9.",
"q.~ +.o.W _ J V { ....{ [ W _ ^ V.V.^.Z.| ~ | { ` ^ ` { .. . . .^ ( |  .e ; ; q [ [ ^ ( k.b.k.j.q - y 7 e.q.:.9.y s s q | ^ R 3.",
"q.~ { ..V W _ _  .....{ { [ [ ^ A.M.Z.m./ ~ | Q ^ ` ` ` ..' >. .^ +.^ [ : ; ; :  .{ O.^ j.k.G.j.u 6 d y 0.*.-.#.6 y d q [ ^ _ d.",
"=.^ { ^ 9.%.2.9.V r h h o.#.o.$.M.N.Z.Z.~ W W ~ ^ ^ O.{ 9 5 y q b.x.v.F.; ; ; ; 2.9.-.$.M R M V # # * i $.:.-.=.u y s q o.&.{ e.",
"=.W { ^ 9.0.0.e.m w h t ....{ +.N.N.V.n.W W Z Z { { { ` 9 6 6 - j.x.v.v.8 ; ; 8 w.0.9.-.M V M M 5 # * 7 $.:.-.$.y y > u o.o.{ h.",
"%.W { ! *.-.-.=.V t m h ..o.| +.M.M.x.G.[ [ _ W W E E ` 5 6 y 6 f.x.x.v.3 ; ; 8 9.e.9.-.M R B B o X # 5 $.q.:.o.y y s q o.o.| t.",
"0.` { ^ :.q.q.0.l w h g ..o.| | M.M.Z.m._ V W W O.( +.O.5 5 u q k.l.b.j.3 O O ; 9.0.0.3.M M l B 5 1 6 w %.:.-.$.s y s u o.| { f.",
"0.` O.( x.Z.H.H.t 1 w 7 ' ..^ / N.!.~.G.h q 5 w b.m.G.f.t 5 6 i b.V.Z.n.3 O O 8 9.9.0.$.h m k m Z V L W -.*.*.$.s > s u o.&.[ t.",
"h.` O.) m.~.I.H.t 1 7 5 ..o.| ( N.!.(.G.w O 5 5 I.T.(.b.t 5 y a b.A.I.H.3 O O 8 9.0.0.2.m m a a [ { ..` u.*.*.=.u , s : 7.| { t.",
"h.` O.( c.Z.Z.c.t 5 7 7 ..o.{ | M.A.~.G.h 5 6 w b.H.I.c.t 5 s d V.A.m.m.3 O O 8 9.0.0.2.h h a c Z W { ` :.*.*.=.y y s u o.o.} t.",
"h.` { ( m.^.~.T.w 1 7 6 ' o.{ ^ N.A.~.G.g 5 % 9 G.I.I.v.t q q u b.V.~.m.3 O O 8 =.d.q.=.h k f c ~ ~ ` W a.*.*.+.s y s p o.| { t.",
"9.~ { ^ M.!.N.I.g 6 u u } 9.o.$.x.x.m.v.r 0 q w ....{ ..8 e : q [ { / [ e q q a v.x.m.h.w 5 6 q } | ..{ ! ) ) ~ q , u u 9.0.%.j.",
"-.^ { ^ M.!.N.Z.g 6 u q X.=.#.$.M.V.I.n.r ; 9 w _ [ { ..q e u p  ...[ } e u u g x.c.V.f.d 6 6 q  .} ,.../ / ) / u > s u 9.:.%.D.",
";.~ { ^ M.Q.N.Z.g y y u X.$.o.$.f.x.H.f.0 8 q r { o... .q 8 ; :  .{ [ } u u i h b.x.V.h.7 * 6 6 { X.<...^ ! ! ~ u y s u 2.i.%.D.",
"=.~ { ^ x.B.N.Z.g 6 p q | o.| $.Z.x.Z.q.N 0 r w ' { [ Z a w p q  . .[ } e y 6 a x.c.Z.f.g 6 - y | o.#...&.) / | u y s w 9.0.%.l.",
"9.[ | { V.Q.Z.I.l y d u } / [ { ^ ! +.=.t.j.G.F.r r r a L _  . . .} [ [ q - - 9 b.x.Z.g.a 7 u p [ [ ..#.f.c.c.q.i y s e 9.:.%.k.",
"9.[ ..{ A.^.A.I.l d d i [ } [ [ *.| | @.G.H.L.v.w 9 q e  .<.<.o. .X.[ [ : * % 6 c.N.Z.f.j i u a } { ..$.z.Q.c.n.q y u i -.i.%.l.",
"w.[  .{ Z.^.A.I.B s d u [ ~ ~ [ / ^ ! +.G.P.I.F.h r w q  . ...` ..,. .A q * * 9 x.N.Z.k.g 7 u p o.| ..2.f.c.c.z.i y s w -.u.%.l.",
"7.[  .{ m.^.Z.I.l i d p [ ^ [ { | / +.+.n.b.G.G.w e q 8  .{ .... .X. .[ q - * 9 x.N.N.f.h 6 u e } [ ..2.f.N.c.v.e y p e -.:.%.l.",
"C e a w +.:.*.*.a y y q [ { o.{ ~ ~ / ^ V.I.I.G.8 8 % %  ._ W W w q 8 ; J P ' W C.).!.I.w y q p [ {  .#.Q.Q.!.n.9 d u h m.V.V.E.",
"C e i w $.a.*.:.j y i y [ ^ | | } ~ ! / x.V.P.G.5 ; - %  .[ ^ ` w - 8 8 U J ' _ U.!.!.I.w y 6 u } ..` +.Z.Q.~.z.w d q h c.m.V.R.",
"C < p w $.d.:.-.i y y q [ } | { ~ ~ / ! V.C.P.G.5 % $ - L W R R e : ; 8 ' J ' ` A.).!.I.w y : e } o.[ #.I.Q.Q.x.i a q h m.M.M.E.",
"K : p i $.i.-.9.d s y u ~ ~ { [ } [ } ! M.C.P.b.8 ; - :  .+.( ^ q ; ; 8 U l ' ` A.).A.I.w u : < [ { { $.I.N.Q.x.q i - r m.A.M.E.",
"S , > u $.:.*.9.i s y q ~ ~ | [ X.} +.) C.C.E.P.r q : p S.Y.P.V.6 % O ; K U ' ` A.!.!.I.9 y : : } o...#.A.m.Q.z.5 7 5 t V.A.Z.`.",
"b ; - 6 o.:.*.=.i s y 6 ~ ~ ^ [ X.| +.) C.C.U.P.a e : b L. X`.P.5 & $ % J U ' W A.).A.A.9 - : e [ +...#.Z.N.Z.z.5 6 % w Z.Q.A.].",
"S ; > q o.q.-.=.i y y 6 A Q ~ [ X.o.+.+.C.A.E.P.t u , s F.T.C.k.6 & $ ; L L _ ` A.!.B.P.w 6 - : ..{ #.#.Z.x.N.z.9 6 o r Z.!.A.`.",
"S , - q #.d.-.9.i y , q Y ~ } [ o.X.@.) C.A.U.l.p , , f J.T.Z.m.6 % $ % L U ' R A.A.A.M.7 - ; : { +.+.#.Z.x.Q.z.8 6 5 r Z.U.B.`.",
"v = ; ; P.R.P.Y.i 5 * - Y { { Q o. .| ( N.A.U.G.6 # & -  .o.&.~ - p ; : T  .W { P.A.U.j.w % - q X.^ ^ ~ Q ~ ~ C e e q 0 I.^.l.).",
"S = % O D.R.P.P.w % % % L [ { W ....{ ( M.U.R.G.9 * & -  .X./ ~ q p : , T X.Z { b.P.U.j.w % , p { W ^ ^ Q A A A ; 8 w t I.I.M.{.",
"v = ; 1 D.E.R.Y.5 # % % L W ^ ^ ..{ | ( A.A.R.Y.6 * & >  .} / Q ; ; $ ; T } _ ~ m.U.T.G.t % - u [ ^ / ~ N N N N r ; 1 r G.(.V.^.",
"S = ; 8 D.P.P.P.w 9 5 5 [ [ { { | X.+.( V.V.V.G.w 7 6 y } X./ ~ 0 a e a Y  .~ ^ f.k.V.d.9 % = , ..| | ^ / / ~ [ 0 r r V t.G.j.(.",
"I : u 5 +.$.%.#.W V Z m X.{ { { [ [ { ^ a.p.d.3.h i f d ,.X.&.| [ X.{ [ [ [ W ^ ^ ( ( O.1 ; , q  .| [ +.f.c.z.v.T.W.}.t.h . . m ",
"I = a 5 ] { #.` W W _ V o.| o.o. .[ { E u.@.i.$.k h k f <.7.$.| | =.$.X.~ W W ^ ^ E E R 5 8 , :  .X.~ +.m.~.Z.I.U.W.XXJ.0   o m ",
"I = a q ..O.3.O.l M W C o.{ o.o.[ { +.E i.%.y.2.k h f b ,.X.o.| { ( +.{ W N ` E ( ( { { 8 5 , :  .o.[ | c.m.g.V.R.Y.T.S.e ; $ c ",
"U = p q ....$.] W ` ^ Z o.~ [ } [ [ ..^ u.@.0.3.h a f a  . .X.{ %.+.%.+.^ ~ ^ E ^ ^ ( ^ 8 : , , L o.{ ^ v.x.s.V.V.D.Y.F.8 ; : n ",
"b @ * 5 L ..{ { x.P.T.G.t 8 8 r } } | { -.d.3.3.m r p c q 8 8 5 g.V.k.b.^ | E / m.I.I.j.r % : :  .[ ~ { *.u.u.@.4 2 5 w ' ,.T 8.",
"B % - ; J ..` ~ b.P.I.k.t 8 8 e ~ | [ ^ %.d.%.2.m e f p q 6 e 6 d.k.k.f.{ ^ Q | G.I.T.k.r X = , L Z W ^ +.:.*.@.2 1 1 w _ ..L 7.",
"d % - % L  .{ | P.I.R.G.M q q p } o.| +.q.g.d.d.m r a c q : p w b.U.I.m.| [ ~ +.G.~.(.v.9 X $ : ,.[ { | *.a.:.*.9 1 9 w _ ..Y w.",
"a O q q L [ ~ { k.k.V.f.t q , : Y { [ [ #.3.$.2.m c m b q = 6 5 d.g.f.t.| Q A { b.m.L.j.r % : u _ _ ~ ~ +.=.=.+.0 w w g  .X.[ 9.",
"<.m L B X. .[ { i.g.g.i.0 6 > , Y ~ ~ ~ #.#...{ | [ Y Y p u p i { / &.| o.} o.| W ~ ^ W . X $ %  ._ W ^ / | | } _ L _ _ 2.h.$.n.",
"2.C L Z ,.X. .{ %.y.y.%.w 7 > , A ~ ~ ~ O.O.{ { o.} X.T f , u s ` ~ ^ ~ o.o.o.X.} ~ ^ ~ 8 % : : ..{ ~ [ | } }  . . .] ..e.h.%.V.",
"{ m C B T T W ` @.@.y.%.9 y > , C ~ W W ` ] [ { ~ A Y K q = > 7 { E } A X.Y X.Y ~ ~ ~ W o X X X ` ` ` ~ } [  .T L L J ' %.%.( g.",
"t.{ 7.X.r.w.9.0.g.l.l.k.J P f D X.o.$.2.3.d.0.q.r.9.r.7.U f P U 9.=.q.r.t.8.r.q.9.=.0.9.t a f B 3.9.$.=.9.9.w.8.w.1.4.2.D.V.g.E."
};
