/* XPM */
static char *obsi641681393831[] = {
/* columns rows colors chars-per-pixel */
"64 64 72 1 ",
"  c #040406",
". c #0B0706",
"X c #080A07",
"o c #06050D",
"O c #09070D",
"+ c #07090C",
"@ c #0B0B0E",
"# c #110D0D",
"$ c #0E100E",
"% c #10120E",
"& c #060512",
"* c #0A0613",
"= c #070A12",
"- c #0D0D14",
"; c #06041A",
": c #0B061B",
"> c #0E0D1A",
", c #100F15",
"< c #110E1B",
"1 c #0F1014",
"2 c #0E111A",
"3 c #111115",
"4 c #11111A",
"5 c #18161F",
"6 c #15181D",
"7 c #1D1D1F",
"8 c #0E0522",
"9 c #0F0D22",
"0 c #120E22",
"q c #0F1121",
"w c #151322",
"e c #191624",
"r c #1B1A25",
"t c #17112A",
"y c #1B162B",
"u c #1D1A2B",
"i c #1F1536",
"p c #1E1A31",
"a c #201F27",
"s c #211C2D",
"d c #201734",
"f c #221C33",
"g c #251C39",
"h c #22212E",
"j c #252233",
"k c #2B2936",
"l c #262138",
"z c #2C243B",
"x c #2D2B3B",
"c c #312D3D",
"v c #34313F",
"b c #2D2443",
"n c #2F2A41",
"m c #332D44",
"M c #382E47",
"N c #352D4A",
"B c #382F4C",
"V c #353145",
"C c #393545",
"Z c #3A3846",
"A c #36324A",
"S c #3A344C",
"D c #3C394C",
"F c #352E52",
"G c #392F51",
"H c #3C3352",
"J c #3E3953",
"K c #3F3558",
"L c #413D4C",
"P c #413C54",
"I c #423C5A",
"U c #454156",
/* pixels */
"wq2222221113#3#1-:>>22<---1$$$%%3,,,##O 3--144<>twq2####.#*#<<:0",
"2q>2262411111%%33>>>2>42-1-131$%3,,,*O,*<,>-2442qq2w5,5###*#<<99",
"2222623331,131#131-3233->11111,2,,4,OO O3---44>2qqw2<<5,..OO>qqq",
"12111133113#%#%3$1-3-31>3-3->4>2,,,<5<<<<441444>2>w2<<#<<<<<>>2>",
"11@1%131@@@-@@@@@+@@,3334>4>4>>>:*;<fkkk<<2444142q4>>>:*ccVkw242",
"$$@11133++OOOOOO@+@@-33333<4w>>0;:&<cLcCw04>34422222:;:8LDDCw-22",
"1$$$1133@*******-O--,33,4444><<<:0;:xMkc44424411112>:::8BbSx4=41",
"1=111662--:9::0:>:--,3,,333341><:0;8mCkMww443431-122>;88HMSVw261",
"133>-*>*mmVANAFSSnDm2-4@33@5.3@*MBANgfuy4w4<---@+=O*MBGIddpyw<13",
"444>>*:>mmNAAFHFBNJm0=4-@#@3 @+*MMHVfuuyw4442---OOo*LPbbddft<-$1",
"244>>*::SSJHKKKJHSPCw*<,,3#3O@O-SSJSlusuw4w>1-1-++O*MLLPdddee311",
">><2*:>:mnNABAGFNnMzw-,,@#.@,,-<nnVnfyuy0422-1--++**zzzLddre4221",
"--3-***:ssddffgftte0<,,,5357ZDDDlpffyure<<4>1>-1=+==55te00444211",
"-3,-,*,*55sypddd>,*#,,,-#-*<JUUPpeeyruse<<1<-311=+=&<*<*5<<<4222",
"@@#@#O*#aassssss33%##,##,5<0UIIKfeusrsar<<-24324=o>=<<5<<<<46442",
"#%%@#.**555sasaa,3##3##,,<<<PIKUuuraeeae>>4>-433>&**<*5#<<<>4222",
"$-$-++O@7rre6->41$$$31131-114w4w,-%3%@@-4<<,-@@@weurw<<<<<22qq22",
"-@-@++@+rrr62>>11$$11%1%11@12113-1#@#$#,3<<<-@.@ruuw0<><>>>2>222",
"@1@@=++-r7rr64441$$3%%%3@@-*11313,%#%#@,<4<<-O@@errr4<<<w>222222",
"1@11-@+-6e7e4>>4@$@$1$11#-@#113-3,3%@$-,<<><--@@6eew4<,<>2212222",
"11311--14441=**-O#*.@@@-**.#*##*,,,,3@3->>>:<,,,645,,,4,-24-2221",
"33311111-34-=ooOO*.#OO@O##**#***,3,,3-,,:::><4,3,333,,,,---11112",
"14361113444<-==-*****:-*:**:::<*4<3,,,2<:;;:<<4,3333,33,3,1--112",
"13431111343--O=-**<:<<:<<<<:8<:<<<,3,,<<>9::043,3333533#,-1-422=",
"44-42,43-1331114MbMMbBMbMbMMbGGb<<,,@OO*mZAVq>-3OOO#O@OO-OO=----",
"231441,234364144LLPLLGPPPGGPPPGP044,-O*>ADAV9>=,OO*O*O=O=O*--<4-",
"4<41>44446633334MPMGBPBPGGGGGPGB<44,OO**ZDSCw4>4**:*****O&&*-<>2",
"223<341--1133334MBBMBPBBPGPGGPGM044,-O=*xVVn>>-4**:**::*>-*--,>-",
"<42<32,4O@@-1113:80tyyttityitttt543,@OO-ujfs**O,zbnMNMCCryeeww<<",
"<24<4,24++OO@@-1w0<0tsssdisdytyt453,@+O-weruo*O*zbbbNSSAfsuew44<",
"4>4222,1+++O111-<<*<5wee5eee50054563@OO-eruu&*O*bbbMGHHHupsew<<<",
"1414<44<*===-12-5,<5waeweys550504533-OO*uuusoOO*zbbbBSAMyyyrew4w",
"-,,->*-:AVZnfyue--144444hhhhuuuh<332-3>2444--+XOuyyysuuu,<<<4454",
",,3->*:>VVAVpypu-1122444uhhhurte43414>-<2431OXX@weyeerur,,3<3353",
",,4,**;:AAJAjtuu41134444hhhhuuye44->-4-12331@++Owyyrurur,-335333",
",%,---><ncVxyyye-3131444uhhuuuau<-4121-11131-+o=rerree5e<,43,333",
"#@,,,<<<eqry0wt4414114>4q226rrur>42--31$131-*===rrrw44<<<,3,,333",
"@%@,344<2=>><<w>33334342222qrhhu2>-11@$@$33-=&;;uere4>>-33,33,3%",
"3@$,344<6>2w<<4-14234242222qhhhh>>>13@$$$$1-*;;:r7rr4>,<4,,,,,#3",
"33%@333>-*4w<<e443131411222qrhur>>13@$$@$11-=;;;eer64>-><43,,3#3",
"33,,,33,,,4<,,<<2131,32341>>2,4>w>24++$X$$-=9w90<3-5o>>*<4333,33",
"33,,333,335,<<<<11-1>4-4-32<>2>1>>42=+@@11-2>wwq<,-4&>=;<<<<,,33",
",,,3,533444<<<<<<1<2-,44,>-33-4<>44-= ++1->22w42,4-<&&&&<<<<,,33",
"<3,,,3,3,,3<<<><>1-342412-4>-4-2214=6222>>>-4444,3-<4w2q0www4533",
"4<<,,-O--@--><04>4>1-2331111-311=O-=xxnx>>>22131O-O<xVVVyyye5<,,",
"w4<>,OOO@=*->40<2-3>4313<11,3113@+==DDJA99>>233%OOo<ZUPPppyy5<<<",
"<ww<-*O@-=*->w0<<141-441111,113-@O-&DVZA999231%$O-o*ZDSSppuye4,<",
"<<4<-*:->:::<0<>4--<1233,1111113O@=&DVAJt9>>33%$O=**ZZADpputw<<,",
"<4<wASNKFAAbzfss3--->1--444444-2=o&>nAAAypue43#333422442442<-2,1",
"<5>0AKFFFFHbluru<<>1-44-41-1,2---&==nAAnppue4,-,33333313411131-1",
"<w>wAJHHFHFNgsda>1-<2-4-,--2-11-*o=2VZDApyuyw<,,3113411313413243",
"<4:tbAmNFnNnzdss<343----46444->-Oo==xvAAppuye4462341133311133333",
"0w<0eewysdsdsyys444-==o*rr7641-4OO=*hhlfyyuyeeeu4342,44><3,42344",
"9>9w>:,<eesysyyy<44-Oooorrre6223@O@Oaruuypuuuurr421<2,14--224436",
"9:q4>3637aasysdd444-=ooOrra74-31OO-Ohhjjuyyuuuuu442132,33>433444",
"w>2w144,575aysts<44,=O==76r64--4++-Oauhpuuuyuuur>3,4<34>21-44644",
"9w<433%3#3,5esutw444414------423#+O#4rreuuuuuuurrrrr42444<2>-*=>",
"9<2233%%33,<essy444344,2-=-----3@@O-5re5rrueuerrrr7r44441>1>->-=",
"222233313#35eusy44444234=-=---->@OO-65eeuuuuuuuurhrrw4>4>2----->",
"2222313133355uye44343441---->1-1---,4556errreurrwree4424>->>>>>=",
"222111234<<44ww4444443434-2,14>4,,<<455<<<<<44w4626242<<,22>2242",
"111221244440<<4<3>14444444444443<<<<44<<<-,<<<<422224242>>2>4444",
"1112222>><<4<<<414144344443243444<<44<4<,<4344444>242>42>24w2ww4",
"1111229w>944<44441444464-34->,,<<<<<4<54-,,<,444w2w2w4>>>>>>224w"
};
