/* XPM */
static char *stone641681393831[] = {
/* columns rows colors chars-per-pixel */
"64 64 256 2 ",
"   c black",
".  c #010101",
"X  c #020202",
"o  c gray1",
"O  c #040404",
"+  c gray2",
"@  c #060606",
"#  c #070707",
"$  c gray3",
"%  c #090909",
"&  c gray4",
"*  c #0B0B0B",
"=  c #0C0C0C",
"-  c gray5",
";  c #0E0E0E",
":  c gray6",
">  c #101010",
",  c #111111",
"<  c gray7",
"1  c #131313",
"2  c gray8",
"3  c #151515",
"4  c #161616",
"5  c gray9",
"6  c #181818",
"7  c #191919",
"8  c gray10",
"9  c #1B1B1B",
"0  c gray11",
"q  c #1D1D1D",
"w  c #1E1E1E",
"e  c gray12",
"r  c #202020",
"t  c gray13",
"y  c #222222",
"u  c #232323",
"i  c gray14",
"p  c #252525",
"a  c gray15",
"s  c #272727",
"d  c #282828",
"f  c gray16",
"g  c #2A2A2A",
"h  c gray17",
"j  c #2C2C2C",
"k  c #2D2D2D",
"l  c gray18",
"z  c #2F2F2F",
"x  c gray19",
"c  c #313131",
"v  c #323232",
"b  c gray20",
"n  c #343434",
"m  c #353535",
"M  c gray21",
"N  c #373737",
"B  c gray22",
"V  c #393939",
"C  c #3A3A3A",
"Z  c gray23",
"A  c #3C3C3C",
"S  c gray24",
"D  c #3E3E3E",
"F  c #3F3F3F",
"G  c gray25",
"H  c #414141",
"J  c gray26",
"K  c #434343",
"L  c #444444",
"P  c gray27",
"I  c #464646",
"U  c gray28",
"Y  c #484848",
"T  c #494949",
"R  c gray29",
"E  c #4B4B4B",
"W  c #4C4C4C",
"Q  c gray30",
"!  c #4E4E4E",
"~  c gray31",
"^  c #505050",
"/  c #515151",
"(  c gray32",
")  c #535353",
"_  c gray33",
"`  c #555555",
"'  c #565656",
"]  c gray34",
"[  c #585858",
"{  c gray35",
"}  c #5A5A5A",
"|  c #5B5B5B",
" . c gray36",
".. c #5D5D5D",
"X. c gray37",
"o. c #5F5F5F",
"O. c #606060",
"+. c gray38",
"@. c #626262",
"#. c gray39",
"$. c #646464",
"%. c #656565",
"&. c gray40",
"*. c #676767",
"=. c #686868",
"-. c DimGray",
";. c #6A6A6A",
":. c gray42",
">. c #6C6C6C",
",. c #6D6D6D",
"<. c gray43",
"1. c #6F6F6F",
"2. c gray44",
"3. c #717171",
"4. c #727272",
"5. c gray45",
"6. c #747474",
"7. c gray46",
"8. c #767676",
"9. c #777777",
"0. c gray47",
"q. c #797979",
"w. c gray48",
"e. c #7B7B7B",
"r. c #7C7C7C",
"t. c gray49",
"y. c #7E7E7E",
"u. c gray50",
"i. c #808080",
"p. c #818181",
"a. c gray51",
"s. c #838383",
"d. c #848484",
"f. c gray52",
"g. c #868686",
"h. c gray53",
"j. c #888888",
"k. c #898989",
"l. c gray54",
"z. c #8B8B8B",
"x. c gray55",
"c. c #8D8D8D",
"v. c #8E8E8E",
"b. c gray56",
"n. c #909090",
"m. c gray57",
"M. c #929292",
"N. c #939393",
"B. c gray58",
"V. c #959595",
"C. c gray59",
"Z. c #979797",
"A. c #989898",
"S. c gray60",
"D. c #9A9A9A",
"F. c #9B9B9B",
"G. c gray61",
"H. c #9D9D9D",
"J. c gray62",
"K. c #9F9F9F",
"L. c #A0A0A0",
"P. c gray63",
"I. c #A2A2A2",
"U. c gray64",
"Y. c #A4A4A4",
"T. c #A5A5A5",
"R. c gray65",
"E. c #A7A7A7",
"W. c gray66",
"Q. c #A9A9A9",
"!. c #AAAAAA",
"~. c gray67",
"^. c #ACACAC",
"/. c gray68",
"(. c #AEAEAE",
"). c #AFAFAF",
"_. c gray69",
"`. c #B1B1B1",
"'. c #B2B2B2",
"]. c gray70",
"[. c #B4B4B4",
"{. c gray71",
"}. c #B6B6B6",
"|. c #B7B7B7",
" X c gray72",
".X c #B9B9B9",
"XX c gray73",
"oX c #BBBBBB",
"OX c #BCBCBC",
"+X c gray74",
"@X c gray",
"#X c gray75",
"$X c #C0C0C0",
"%X c #C1C1C1",
"&X c gray76",
"*X c #C3C3C3",
"=X c gray77",
"-X c #C5C5C5",
";X c #C6C6C6",
":X c gray78",
">X c #C8C8C8",
",X c gray79",
"<X c #CACACA",
"1X c #CBCBCB",
"2X c gray80",
"3X c #CDCDCD",
"4X c #CECECE",
"5X c gray81",
"6X c #D0D0D0",
"7X c gray82",
"8X c #D2D2D2",
"9X c LightGray",
"0X c gray83",
"qX c #D5D5D5",
"wX c gray84",
"eX c #D7D7D7",
"rX c #D8D8D8",
"tX c gray85",
"yX c #DADADA",
"uX c gray86",
"iX c gainsboro",
"pX c #DDDDDD",
"aX c gray87",
"sX c #DFDFDF",
"dX c gray88",
"fX c #E1E1E1",
"gX c #E2E2E2",
"hX c gray89",
"jX c #E4E4E4",
"kX c gray90",
"lX c #E6E6E6",
"zX c #E7E7E7",
"xX c gray91",
"cX c #E9E9E9",
"vX c #EAEAEA",
"bX c gray92",
"nX c #ECECEC",
"mX c gray93",
"MX c #EEEEEE",
"NX c #EFEFEF",
"BX c gray94",
"VX c #F1F1F1",
"CX c gray95",
"ZX c #F3F3F3",
"AX c #F4F4F4",
"SX c gray96",
"DX c #F6F6F6",
"FX c gray97",
"GX c #F8F8F8",
"HX c #F9F9F9",
"JX c gray98",
"KX c #FBFBFB",
"LX c gray99",
"PX c #FDFDFD",
"IX c #FEFEFE",
"UX c white",
/* pixels */
"W.L.U.H.H.L.D.K.T.U.I.I.I.I.L.K.B.M.V.G.P.P.K.K.D.A.Z.A.S.S.A.Z.D.A.A.D.S.C.Z.F.S.S.S.G.K.L.J.F.b.b.n.n.n.n.m.m.v.c.v.$.| ..$.#.",
"W.L.U.G.F.J.A.G.J.H.G.G.G.G.F.S.m.b.m.S.J.J.G.G.S.A.Z.Z.A.S.A.C.N.m.m.B.N.m.M.C.B.N.B.C.D.F.S.Z.b.b.b.b.n.n.n.n.M.n.m.*.X.X.@.+.",
"T.J.P.Z.B.A.M.C.P.L.K.K.K.K.J.H.m.b.M.D.K.K.H.H.V.B.N.N.B.B.N.M.B.M.M.C.Z.V.C.S.C.C.C.A.D.F.D.S.z.z.z.z.z.x.x.x.c.z.v.=.O.o.@.+.",
"L.F.H.m.x.n.l.v.m.n.b.b.n.n.b.v.i.u.p.k.b.b.c.c.v.c.x.x.c.c.x.z.p.y.u.d.h.g.g.k.f.d.d.d.f.f.d.d.s.s.d.d.d.d.d.f.i.u.f.$.O.O.#.@.",
"J.D.G.c.h.x.g.k.g.f.d.d.f.g.f.s.0.8.q.p.h.h.g.g.l.k.h.j.k.k.j.h.4.2.3.9.e.e.w.r.w.w.q.0.8.6.6.6.y.y.u.u.u.u.i.i.q.9.y.+.O.O.#.#.",
"K.H.J.c.g.z.g.k.z.l.k.l.z.z.z.k.r.w.t.g.x.x.l.z.l.j.h.j.j.k.j.g.8.6.7.r.p.p.i.i.a.a.p.y.e.q.w.w.y.y.y.y.u.u.u.u.e.9.y.@.+.O.@.@.",
"K.J.L.c.f.z.h.k.h.g.g.g.j.j.h.g.8.7.0.i.g.g.f.f.l.k.j.j.k.k.j.h.6.3.4.q.u.u.t.t.u.i.u.r.q.0.q.e.y.y.u.u.u.u.i.i.y.0.y.#.@.O.+.@.",
"J.J.K.z.s.l.g.j.j.h.g.h.j.k.j.h.w.0.e.s.l.l.k.k.l.k.j.j.k.k.j.h.8.5.6.e.p.p.u.y.y.u.u.t.w.q.e.y.y.y.y.u.u.u.u.u.t.8.e.+.@.O.@.@.",
"N.n.n.u.0.u.w.e.r.e.w.w.e.r.e.w.g.g.d.i.r.w.r.u.i.i.i.i.i.i.i.i.r.e.r.p.h.l.j.d.u.u.i.i.i.i.u.u.i.a.y.8.5.7.8.6.;.>.-.+.|  .X.o.",
"V.M.m.u.9.y.0.w.q.0.9.0.w.w.w.q.k.k.g.p.r.q.q.w.u.u.u.u.u.u.u.u.a.p.a.g.z.c.z.j.y.y.u.i.i.i.u.u.u.i.t.8.3.4.3.<.:.>.-.+. . .o.o.",
"Z.B.N.u.8.e.8.0.0.0.0.w.r.t.t.r.k.j.f.p.r.q.q.w.y.y.y.y.y.y.y.y.i.u.u.s.g.j.g.s.r.t.y.u.i.i.i.i.y.i.y.w.9.9.7.4.:.,.;.+. ...o.o.",
"D.C.V.u.6.0.5.8.r.r.t.i.s.d.d.s.a.a.p.u.y.t.y.y.e.e.e.e.e.e.e.e.w.w.w.r.y.u.t.e.w.e.t.y.u.i.i.i.y.u.p.a.s.d.a.u.>.,.;.@.....O.O.",
"F.A.C.u.4.8.3.7.u.i.a.f.j.l.k.j.u.y.y.y.u.i.i.i.0.0.0.0.0.0.0.0.w.w.q.w.e.e.w.q.q.w.r.t.u.i.i.i.t.y.p.g.l.z.k.h.>.<.:.#...X.O.+.",
"D.A.C.u.3.7.3.8.u.i.a.g.k.l.k.j.i.u.y.y.u.u.y.t.0.0.0.0.0.0.0.0.q.q.q.q.0.0.0.0.q.w.e.t.y.u.u.u.y.r.u.f.l.k.g.d.,.1.>.#.X.o.+.+.",
"S.Z.C.y.3.7.4.9.t.y.p.f.j.k.h.g.a.i.y.y.i.u.t.w.q.q.q.q.q.q.q.q.q.q.q.0.9.9.0.q.q.w.e.r.t.y.y.y.i.r.y.f.l.j.d.s.<.1.>.$.o.o.+.@.",
"A.C.V.y.2.7.4.0.t.y.p.d.h.j.g.d.i.y.t.y.i.i.y.e.e.e.e.e.e.e.e.e.r.r.r.e.w.w.e.t.q.w.e.r.t.y.y.y.a.t.u.h.x.l.h.h.<.1.>.$.o.o.@.@.",
"Z.B.N.u.8.r.9.q.q.q.q.q.q.q.q.q.9.q.w.w.q.q.w.e.h.h.h.h.h.h.h.h.g.g.g.g.g.g.g.g.h.j.a.9.3.5.8.8.y.u.a.g.k.l.k.h.2.6.1.@.| o.+.o.",
"Z.B.N.u.8.r.9.q.q.q.q.q.q.q.q.q.9.0.q.q.q.q.w.r.j.j.j.j.j.j.j.j.l.l.l.l.l.l.l.l.k.l.d.q.4.3.4.3.y.u.a.g.l.z.l.j.6.9.3.#.| ..X.| ",
"Z.B.N.u.8.r.9.q.q.q.q.q.q.q.q.q.0.q.w.q.0.0.q.e.h.h.h.h.h.h.h.h.h.h.h.h.h.h.h.h.f.f.a.w.7.6.5.4.r.t.i.s.h.j.h.f.5.7.2.#.| ..X. .",
"Z.B.N.u.8.r.9.q.q.q.q.q.q.q.q.q.r.r.e.q.9.8.9.0.a.a.a.a.a.a.a.a.y.y.y.y.y.y.y.y.q.w.e.w.w.w.w.w.w.w.e.t.i.i.u.t.>.<.:.#.X.o.@.@.",
"Z.B.N.u.8.r.9.q.q.q.q.q.q.q.q.q.i.u.r.q.7.5.5.6.u.u.u.u.u.u.u.u.q.q.q.q.q.q.q.q.2.3.7.w.y.u.i.i.w.q.q.w.w.w.0.8.=.;.=.#.o.+.$.&.",
"Z.B.N.u.8.r.9.q.q.q.q.q.q.q.q.q.a.i.t.0.6.3.4.5.u.u.u.u.u.u.u.u.q.q.q.q.q.q.q.q.2.2.6.e.i.i.u.u.e.w.q.q.w.q.9.7.-.;.=.$.O.o.@.$.",
"Z.B.N.u.8.r.9.q.q.q.q.q.q.q.q.q.p.u.r.9.5.3.4.6.u.u.u.u.u.u.u.u.w.w.w.w.w.w.w.w.5.3.6.e.i.y.r.t.e.w.q.q.w.w.q.9.;.;.=.%.O.X.O.#.",
"Z.B.N.u.8.r.9.q.q.q.q.q.q.q.q.q.u.y.e.9.5.4.6.7.y.y.y.y.y.y.y.y.q.q.q.q.q.q.q.q.6.3.6.r.i.y.e.r.q.0.9.0.w.w.w.q.-.=.*.%.+.o.+.$.",
"v.m.z.e.3.5.7.5.q.0.0.9.8.8.7.7.1.1.1.1.1.1.1.1.2.2.2.2.2.2.2.2.9.9.8.8.8.8.8.8.3.3.2.,.-.=.;.,.1.3.5.8.9.9.8.7.>.1.,.#...o.@.@.",
"b.M.z.e.3.3.4.2.8.8.7.7.6.5.5.5.:.:.:.:.:.:.:.:.:.:.>.>.>.>.>.,.5.5.5.5.5.5.4.4.<.<.:.*.@.O.O.@.&.=.>.1.4.6.6.6.6.8.4.-.+.+.#.#.",
"v.n.l.t.6.7.8.6.q.0.0.9.9.8.8.8.1.1.1.1.1.1.1.1.,.,.<.<.<.1.1.1.7.7.7.7.7.7.7.7.4.3.1.:.*.%.%.&.-.:.1.4.7.9.0.0.3.4.1.*.O.o.+.+.",
"2.4.1.*.#.%.*.*.=.*.*.*.&.&.&.&.@.@.@.@.@.@.@.@.O.O.O.+.+.@.@.#.%.%.%.%.%.%.%.%.%.%.$.#.@.@.#.$.#.$.&.*.=.=.=.=.&.&.%.+.X.X.O.@.",
"..X. .{ [ | .... . .| | | | | | | | | | | | | | } } | | |  . . .} } | | |  . . .X.X.X.X.O.+.@.@.O.O.O.O.o.o.X.X.+.O.o.o.X.X.O.#.",
"o.o.X... ...X.X.................o.o.o.o.o.o.o.o.o.o.o.o.o.o.o.o. .....X.X.o.o.o.@.+.O.+.@.#.@.+.+.+.+.+.+.+.+.+.O... ... .|  .X.",
"X... . . . .| | } | | | | | | |  . . . . . . . . . . .| | } } { { } } | |  .....O.X...X.o.o...| X.X.......X.X.X.@.X. .X.X.| | X.",
"%.#.#.$.&.%.$.$.#.#.$.$.$.$.$.$.#.#.#.#.#.#.#.#.#.#.@.+.O.O.o.o.+.@.@.#.$.$.%.%.=.&.&.*.-.;.=.&.-.=.*.&.%.%.%.%.*.#.+.%.&.#.@.%.",
"V.B.N.N.V.C.C.C.V.C.Z.Z.V.V.C.Z.D.F.F.G.G.F.F.D.M.Z.v.;.} o...-.L.I.P.G.S.F.G.F.Z.V.M.b.v.c.v.v.B.V.C.A.D.D.A.C.n.x.n.D.H.S.D.L.",
"Z.V.B.V.C.A.A.Z.Z.A.S.A.Z.Z.A.S.G.G.H.H.H.H.G.G.D.H.N.1...o.} $.T.E.R.P.J.L.P.L.K.H.S.V.M.n.b.b.Z.Z.A.D.G.G.D.S.n.c.m.F.J.F.F.P.",
"A.Z.C.C.A.S.S.A.S.D.D.S.A.A.S.D.H.H.H.J.J.H.H.H.M.V.c.,.X.o.{ @.U.T.U.J.F.G.H.G.F.S.C.M.b.c.x.x.S.S.D.F.H.H.G.D.M.b.N.F.J.F.G.P.",
"a.p.i.i.p.a.a.p.f.f.d.a.u.y.u.i.g.g.h.h.h.h.g.g.q.t.w.@.| o.} $.Z.S.Z.M.b.b.n.b.j.h.g.f.d.d.d.f.a.a.a.s.f.f.d.a.y.r.y.s.f.s.s.g.",
"0.8.7.7.8.8.8.7.e.w.0.6.3.1.1.2.w.e.e.r.r.e.e.w.;.<.,. .} O.| %.n.M.n.l.g.h.h.g.r.r.r.r.t.y.u.u.8.7.6.7.9.9.8.7.8.6.7.9.9.7.7.9.",
"u.t.r.e.r.t.r.r.a.p.y.q.7.5.5.7.p.p.a.a.a.a.p.p.<.1.<... .+.{ #.M.B.M.x.j.j.j.g.y.y.y.y.y.y.y.y.r.e.w.w.e.r.e.w.t.r.r.r.e.w.w.w.",
"e.w.0.0.0.q.0.9.y.r.q.7.3.2.3.5.t.t.y.y.y.y.t.t.4.3.<.o.o.@.{ @.V.C.B.c.k.k.k.h.p.p.p.i.i.u.y.y.q.9.8.8.9.0.9.8.0.0.0.9.8.9.9.9.",
"y.r.w.w.e.e.e.w.u.y.e.9.6.6.8.0.u.u.i.i.i.i.u.u.1.,.:...o.@.} #.N.V.M.x.h.h.h.f.t.t.y.y.y.y.t.t.r.e.q.q.w.e.w.q.0.q.q.0.0.w.e.e.",
"k.h.f.f.f.f.f.d.q.t.t.0.6.8.9.8.r.q.e.d.l.h.s.a.6.7.6.#.o.@.| &.C.S.V.j.i.i.i.t.u.u.u.u.i.i.i.i.r.e.t.a.j.l.h.d.7.9.q.w.w.w.w.e.",
"x.l.j.h.j.j.h.g.7.q.q.6.2.4.4.3.0.8.q.s.l.l.h.h.6.8.6.#.O.#. .*.B.A.N.g.y.u.u.e.i.i.i.i.i.p.p.p.u.u.i.f.l.z.k.f.9.0.w.w.q.q.w.e.",
"z.k.h.h.j.j.h.g.8.q.q.8.5.6.6.5.0.9.e.s.k.k.j.h.6.7.6.#.O.#...=.V.S.B.j.i.i.i.t.t.t.t.t.y.y.y.y.p.i.a.f.k.l.j.f.q.w.e.e.q.q.q.w.",
"g.d.a.a.s.s.s.a.t.y.u.u.u.u.u.u.p.i.p.s.f.d.a.i.4.5.4.@.o.@. .*.S.H.A.x.d.f.f.a.9.9.9.9.0.0.0.0.u.u.i.a.f.f.s.p.r.r.r.e.q.0.q.w.",
"p.i.y.y.u.i.u.y.p.p.s.g.j.k.k.k.j.j.g.d.a.i.t.w.<.2.1.o...+.| &.F.K.F.b.h.j.j.f.5.5.5.6.6.6.6.6.y.y.u.i.p.p.i.u.y.y.t.e.q.0.q.w.",
"i.u.y.y.u.i.u.u.i.y.p.g.l.l.l.z.k.l.j.s.i.i.y.e.>.<.<.X. .O.} %.F.J.D.v.h.j.j.f.5.5.5.5.6.6.6.6.y.u.i.i.p.p.i.i.u.u.y.r.q.0.q.e.",
"p.i.u.u.i.p.p.i.i.t.u.f.k.j.h.j.j.l.j.a.u.i.i.t.>.,.,.X. .O.| &.D.J.D.v.h.j.j.f.5.6.6.6.6.6.7.7.y.u.i.i.i.i.p.a.i.i.y.r.q.q.w.r.",
"a.i.u.u.p.a.p.p.a.y.u.g.l.h.f.g.j.z.k.a.y.i.i.y.>.<.<.X...+. .*.D.J.D.b.h.k.k.g.5.5.5.5.6.6.6.6.t.y.u.u.u.u.i.p.i.i.y.r.q.q.e.t.",
"r.w.q.0.q.w.q.q.e.8.w.h.v.l.h.k.j.j.d.y.e.r.e.q.=.>.*.O.O. .| @.m.S.V.s.q.t.i.r.q.r.y.r.t.i.i.t.e.t.r.w.w.r.w.8.9.q.e.r.q.9.9.q.",
"r.w.q.0.q.w.q.q.w.7.q.g.v.x.z.v.x.x.h.u.e.e.q.8.=.>.&.O.O... .#.m.A.N.p.8.q.w.7.r.u.u.t.y.i.i.t.9.0.0.8.0.e.e.q.7.9.q.w.0.0.w.r.",
"t.e.q.q.w.e.w.q.w.8.0.a.j.j.h.l.j.j.d.t.q.q.9.6.*.:.&.O.+.X...%.m.Z.M.a.0.w.e.9.i.a.a.u.y.i.i.t.q.e.w.8.9.w.r.e.q.e.e.q.8.8.q.r.",
"u.t.r.r.r.t.t.r.r.0.0.t.u.t.t.u.r.y.r.9.7.9.8.5.&.;.&.O.+.o.X.&.n.V.M.g.i.s.f.a.d.f.d.i.u.i.i.t.d.f.p.e.0.w.e.w.d.f.p.q.6.5.8.9.",
"p.i.y.y.u.i.u.y.r.q.0.q.q.9.8.9.7.9.8.5.5.7.7.5.&.;.&.O.@.O.o.*.n.B.N.l.g.l.x.l.h.j.g.p.u.i.i.t.z.z.h.y.q.q.e.w.z.x.g.w.5.5.7.6.",
"s.p.u.u.i.p.i.u.q.q.q.q.q.0.0.q.8.q.0.6.5.6.6.3.&.:.&.+.@.O.o.*.M.B.M.z.j.l.l.j.j.k.g.p.u.i.i.y.j.l.g.y.0.q.e.e.l.x.g.w.5.7.9.7.",
"a.i.u.u.i.i.i.u.9.0.w.w.w.w.w.w.0.w.q.8.6.7.5.2.*.>.*.+.@.O.o.*.M.N.n.z.j.j.j.g.j.k.g.p.y.i.i.y.f.j.g.y.0.0.e.e.h.l.f.0.4.7.9.7.",
"p.u.y.t.y.u.y.y.8.q.e.w.q.q.q.0.8.q.0.7.6.7.6.2.=.>.*.+.@.o.o.&.n.m.b.l.j.k.k.h.j.k.g.i.y.i.i.y.g.k.j.i.q.0.w.w.g.l.f.9.2.5.7.3.",
":.:.:.:.:.:.:.:.-.;.:.>.,.<.<.<.;.;.>.<.4.6.6.5.6.q.6.&.X.@.%.#.k.c.j.9.>.<.3.2.q.0.9.8.7.6.6.6.3.3.3.3.3.3.3.3.-.-.=.=.=.-.;.;.",
";.;.;.;.;.;.;.;.;.:.>.<.1.1.1.1.>.>.,.2.6.8.8.8.q.r.9.-.O.@.$.+.j.x.f.6.=.=.;.=.5.4.3.2.1.<.<.<.:.:.:.:.:.;.;.;.:.;.;.;.;.:.>.>.",
"*.*.*.*.*.*.*.*.=.-.;.:.>.>.>.>.;.;.:.<.3.5.5.4.6.9.5.*.O.@.#.+.z.c.j.q.1.<.1.<.0.0.8.7.6.6.6.6.2.2.2.2.2.1.1.1.-.=.=.=.=.-.;.;.",
"$.$.$.$.$.$.$.$.+.@.#.$.%.%.%.%.$.$.$.&.=.-.=.*.&.=.*.O...O.@.+.2.5.2.*.@.#.&.&.:.:.;.-.=.=.=.=.&.%.%.%.$.$.#.#.@.@.@.@.@.#.#.$.",
"+.+.+.+.+.+.+.+.....X.o.O.O.o.o.O.o.o.o.O.O.X... .X...| | X.O.O.} ....{ [ } X.o.O.o.X.X.......X..... . .| } } } ............X.o.",
"o.o.o.o.o.o.o.o...X.o.o.o.o.o.o.O.o.X.X.X.X. .}  . . . . .......X.o.o.X.X.O.@.#.#.#.@.+.+.+.+.@.@.@.+.+.O.o.X.X... . . . ...X.X.",
"O.O.O.O.O.O.O.O.O.O.+.+.@.+.+.+.+.O.O.O.+.+.o.X.o.X...X.X... . ...............o.O.O.o.o.X.o.o.o.o.o.X.X... .| | X.X.....X.X.o.O.",
"@.@.@.@.@.@.@.@.+.+.@.#.#.@.@.+.+.O.O.@.#.$.#.+.X.....X.O.o.....O.o.O.+.+.O.O.+.#.#.@.@.@.@.#.#.@.@.+.O.o.X.....o.X.X.X.X.o.O.O."
};
